<svg xmlns="http://www.w3.org/2000/svg" xmlns:xlink="http://www.w3.org/1999/xlink" width="1000" zoomAndPan="magnify" viewBox="0 0 750 749.999995" height="1000" preserveAspectRatio="xMidYMid meet" version="1.2"><defs><clipPath id="caeed60a34"><path d="M 30.871094 30.871094 L 719.371094 30.871094 L 719.371094 719.371094 L 30.871094 719.371094 Z M 30.871094 30.871094 "/></clipPath></defs><g id="d547dfd92c"><g clip-rule="nonzero" clip-path="url(#caeed60a34)"><path style=" stroke:none;fill-rule:evenodd;fill:#eee400;fill-opacity:1;" d="M 558.535156 665.390625 C 498.472656 665.390625 459.628906 636.75 440.691406 599.292969 L 493.363281 568.78125 C 507.242188 591.445312 525.242188 608.066406 557.144531 608.066406 C 583.929688 608.066406 601.03125 594.667969 601.03125 576.175781 C 601.03125 548.371094 563.921875 537.480469 537.730469 526.269531 C 491.050781 506.402344 460.066406 481.4375 460.066406 428.738281 C 460.066406 380.226562 497.039062 343.269531 554.847656 343.269531 C 595.949219 343.269531 625.554688 357.589844 646.789062 395.003906 L 596.417969 427.363281 C 585.332031 407.492188 573.324219 399.644531 554.832031 399.644531 C 535.871094 399.644531 523.851562 411.664062 523.851562 427.363281 C 523.851562 446.777344 535.859375 454.625 563.605469 466.648438 C 621.742188 491.558594 665.734375 511.152344 665.734375 575.25 C 665.765625 633.511719 620.019531 665.390625 558.535156 665.390625 Z M 409.546875 567.871094 C 409.546875 634.890625 368.261719 670.320312 310.953125 670.320312 C 259.175781 670.320312 228.167969 650.519531 212.910156 616.09375 L 212.015625 616.09375 L 264.644531 579.300781 C 274.804688 597.296875 283.964844 610.078125 306.132812 610.078125 C 327.40625 610.078125 340.695312 599.308594 340.695312 566.976562 L 340.695312 340.695312 L 409.546875 340.695312 Z M 30.871094 719.371094 L 719.371094 719.371094 L 719.371094 30.871094 L 30.871094 30.871094 Z M 30.871094 719.371094 "/></g></g></svg>