<svg xmlns="http://www.w3.org/2000/svg" xmlns:xlink="http://www.w3.org/1999/xlink" width="1000" zoomAndPan="magnify" viewBox="0 0 750 749.999995" height="1000" preserveAspectRatio="xMidYMid meet" version="1.2"><defs><clipPath id="9b2ec3130c"><path d="M 189 25.167969 L 544 25.167969 L 544 724.917969 L 189 724.917969 Z M 189 25.167969 "/></clipPath></defs><g id="7fe8b0efbc"><path style=" stroke:none;fill-rule:nonzero;fill:#4e7896;fill-opacity:1;" d="M 313.242188 396.257812 C 313.242188 396.257812 294.816406 407.480469 326.054688 410.6875 C 363.695312 415.496094 383.71875 414.695312 425.367188 406.679688 C 425.367188 406.679688 436.578125 413.894531 451.796875 419.503906 C 358.089844 459.578125 239.550781 417.097656 313.242188 396.257812 Z M 301.226562 344.164062 C 301.226562 344.164062 281.203125 359.390625 312.441406 362.597656 C 353.285156 366.609375 385.324219 367.40625 440.582031 356.1875 C 440.582031 356.1875 447.792969 364.199219 459.804688 368.207031 C 346.878906 401.871094 220.328125 371.414062 301.222656 344.164062 Z M 522.28125 435.523438 C 522.28125 435.523438 535.894531 446.742188 507.0625 455.558594 C 453.402344 471.589844 282.011719 476.398438 233.953125 455.558594 C 217.132812 448.351562 249.167969 437.925781 259.578125 436.324219 C 269.992188 433.921875 275.597656 433.921875 275.597656 433.921875 C 257.179688 421.097656 153.058594 460.371094 222.738281 471.589844 C 414.152344 502.847656 571.929688 457.964844 522.28125 435.523438 Z M 322.058594 289.65625 C 322.058594 289.65625 234.757812 310.492188 290.820312 317.707031 C 314.851562 320.914062 362.101562 320.113281 406.152344 316.902344 C 442.191406 313.699219 478.234375 307.285156 478.234375 307.285156 C 478.234375 307.285156 465.421875 312.894531 456.609375 318.503906 C 367.707031 341.746094 197.121094 331.328125 245.96875 307.285156 C 287.617188 287.25 322.054688 289.652344 322.054688 289.652344 Z M 478.230469 377.015625 C 567.933594 330.53125 526.285156 285.648438 497.453125 291.257812 C 490.246094 292.859375 487.042969 294.464844 487.042969 294.464844 C 487.042969 294.464844 489.445312 289.652344 495.050781 288.050781 C 551.914062 268.015625 596.765625 348.160156 476.628906 379.417969 C 476.628906 379.417969 477.433594 378.617188 478.230469 377.015625 Z M 330.863281 503.648438 C 417.359375 509.261719 549.496094 500.445312 552.71875 459.566406 C 552.71875 459.566406 546.3125 475.597656 481.441406 487.617188 C 407.757812 501.246094 316.457031 499.640625 262.808594 490.824219 C 262.808594 490.824219 274.019531 500.445312 330.886719 503.648438 Z M 330.863281 503.648438 "/><g clip-rule="nonzero" clip-path="url(#9b2ec3130c)"><path style=" stroke:none;fill-rule:nonzero;fill:#f58219;fill-opacity:1;" d="M 423.761719 25.167969 C 423.761719 25.167969 473.417969 75.660156 376.507812 151.800781 C 298.824219 213.515625 358.890625 248.78125 376.507812 288.855469 C 330.859375 247.980469 298.019531 211.914062 320.445312 178.25 C 353.289062 128.558594 443.796875 104.53125 423.769531 25.167969 Z M 398.152344 255.199219 C 421.375 281.648438 391.742188 305.691406 391.742188 305.691406 C 391.742188 305.691406 451.007812 275.234375 423.777344 237.566406 C 398.949219 201.5 379.726562 183.867188 483.84375 123.773438 C 483.84375 123.773438 319.664062 164.648438 398.148438 255.214844 Z M 338.871094 685.578125 L 338.871094 607.035156 C 338.871094 586.996094 327.660156 573.371094 299.628906 573.371094 C 283.609375 573.371094 269.992188 577.378906 257.980469 582.171875 L 261.984375 596.597656 C 270.78125 593.394531 282.007812 590.1875 294.023438 590.1875 C 309.238281 590.1875 316.445312 596.597656 316.445312 609.421875 L 316.445312 619.839844 L 308.4375 619.839844 C 269.996094 619.839844 252.375 634.269531 252.375 657.511719 C 252.375 676.746094 264.386719 687.964844 286.015625 687.964844 C 299.628906 687.964844 310.042969 681.554688 319.652344 673.539062 L 321.253906 685.5625 L 338.875 685.5625 Z M 316.445312 659.929688 C 308.4375 667.144531 299.628906 671.152344 291.617188 671.152344 C 281.203125 671.152344 274.796875 664.738281 274.796875 653.519531 C 274.796875 642.296875 281.207031 634.285156 306.835938 634.285156 L 316.445312 634.285156 Z M 414.160156 685.578125 L 386.125 685.578125 L 352.492188 575.773438 L 376.519531 575.773438 L 397.34375 643.097656 L 402.148438 663.136719 C 412.558594 634.28125 420.570312 604.628906 423.773438 575.773438 L 447.796875 575.773438 C 441.390625 611.84375 430.179688 651.113281 414.164062 685.578125 Z M 543.902344 685.578125 L 543.902344 607.035156 C 543.902344 586.996094 532.691406 573.371094 504.65625 573.371094 C 488.640625 573.371094 475.023438 577.378906 463.011719 582.171875 L 466.214844 596.597656 C 475.828125 593.394531 487.039062 590.1875 499.050781 590.1875 C 514.269531 590.1875 521.476562 596.597656 521.476562 609.421875 L 521.476562 619.839844 L 513.46875 619.839844 C 475.027344 619.839844 457.40625 634.269531 457.40625 657.511719 C 457.40625 676.746094 468.617188 687.964844 490.242188 687.964844 C 504.660156 687.964844 515.070312 681.554688 524.679688 673.539062 L 526.28125 685.5625 L 543.902344 685.5625 Z M 521.476562 659.929688 C 513.46875 667.144531 504.660156 671.152344 496.648438 671.152344 C 486.238281 671.152344 479.832031 664.738281 479.832031 653.519531 C 479.832031 642.296875 486.238281 634.285156 511.867188 634.285156 L 521.480469 634.285156 L 521.480469 659.914062 Z M 227.550781 704.011719 C 221.144531 713.632812 211.53125 720.84375 199.519531 724.851562 L 189.101562 712.035156 C 197.109375 707.226562 205.121094 700.015625 208.324219 693.601562 C 211.527344 687.988281 212.328125 679.972656 212.328125 661.542969 L 212.328125 536.511719 L 236.355469 536.511719 L 236.355469 659.941406 C 236.355469 684.785156 233.953125 694.402344 227.5625 704.023438 Z M 227.550781 704.011719 "/></g></g></svg>