<svg xmlns="http://www.w3.org/2000/svg" xmlns:xlink="http://www.w3.org/1999/xlink" width="1000" zoomAndPan="magnify" viewBox="0 0 750 749.999995" height="1000" preserveAspectRatio="xMidYMid meet" version="1.2"><defs><clipPath id="6c584742ba"><path d="M 34 24.277344 L 312 24.277344 L 312 197 L 34 197 Z M 34 24.277344 "/></clipPath><clipPath id="284417dd9d"><path d="M 34 101 L 316 101 L 316 725.527344 L 34 725.527344 Z M 34 101 "/></clipPath><clipPath id="12f89537c9"><path d="M 296 407 L 583 407 L 583 725.527344 L 296 725.527344 Z M 296 407 "/></clipPath><clipPath id="1b1bef916b"><path d="M 563 177 L 716.421875 177 L 716.421875 427 L 563 427 Z M 563 177 "/></clipPath><clipPath id="7d8dca615d"><path d="M 430 102 L 716.421875 102 L 716.421875 273 L 430 273 Z M 430 102 "/></clipPath></defs><g id="ec3fdcdb94"><g clip-rule="nonzero" clip-path="url(#6c584742ba)"><path style=" stroke:none;fill-rule:nonzero;fill:#ef0a1b;fill-opacity:1;" d="M 175.566406 196.4375 C 173.894531 196.4375 172.339844 196.019531 170.894531 195.1875 L 169.976562 194.65625 L 38.765625 118.648438 C 38.417969 118.445312 38.082031 118.21875 37.761719 117.972656 C 37.441406 117.726562 37.136719 117.460938 36.851562 117.175781 C 36.566406 116.890625 36.300781 116.589844 36.054688 116.269531 C 35.808594 115.949219 35.582031 115.613281 35.378906 115.265625 C 35.175781 114.914062 34.996094 114.554688 34.839844 114.183594 C 34.683594 113.808594 34.554688 113.429688 34.449219 113.039062 C 34.339844 112.648438 34.261719 112.253906 34.207031 111.855469 C 34.148438 111.457031 34.121094 111.054688 34.117188 110.648438 C 34.117188 110.246094 34.140625 109.84375 34.1875 109.441406 C 34.238281 109.042969 34.3125 108.644531 34.414062 108.253906 C 34.515625 107.863281 34.640625 107.480469 34.792969 107.105469 C 34.945312 106.734375 35.117188 106.371094 35.316406 106.019531 C 35.515625 105.664062 35.734375 105.328125 35.976562 105.003906 C 36.21875 104.683594 36.480469 104.375 36.761719 104.085938 C 37.046875 103.796875 37.34375 103.527344 37.660156 103.277344 C 37.976562 103.027344 38.308594 102.796875 38.65625 102.589844 L 166.773438 26.046875 C 167.5 25.613281 168.265625 25.285156 169.078125 25.0625 C 169.894531 24.835938 170.722656 24.726562 171.566406 24.726562 C 172.410156 24.726562 173.238281 24.839844 174.050781 25.066406 C 174.863281 25.289062 175.628906 25.621094 176.355469 26.050781 L 306.914062 104.257812 C 307.257812 104.464844 307.589844 104.691406 307.902344 104.941406 C 308.21875 105.1875 308.515625 105.457031 308.796875 105.746094 C 309.078125 106.035156 309.339844 106.339844 309.582031 106.660156 C 309.820312 106.980469 310.039062 107.316406 310.238281 107.667969 C 310.4375 108.015625 310.609375 108.378906 310.761719 108.75 C 310.914062 109.121094 311.039062 109.503906 311.140625 109.890625 C 311.242188 110.28125 311.316406 110.675781 311.367188 111.074219 C 311.417969 111.472656 311.445312 111.871094 311.445312 112.273438 C 311.441406 112.675781 311.414062 113.074219 311.363281 113.472656 C 311.308594 113.871094 311.230469 114.265625 311.128906 114.652344 C 311.023438 115.042969 310.894531 115.421875 310.742188 115.792969 C 310.589844 116.164062 310.414062 116.523438 310.214844 116.875 C 310.011719 117.222656 309.792969 117.558594 309.550781 117.878906 C 309.304688 118.199219 309.042969 118.5 308.761719 118.785156 C 308.480469 119.074219 308.179688 119.339844 307.863281 119.585938 C 307.546875 119.835938 307.214844 120.0625 306.867188 120.265625 L 180.316406 195.136719 C 178.851562 196.003906 177.265625 196.4375 175.566406 196.4375 Z M 61.820312 110.460938 L 175.515625 176.320312 L 283.902344 112.199219 L 171.554688 44.902344 Z M 61.820312 110.460938 "/></g><g clip-rule="nonzero" clip-path="url(#284417dd9d)"><path style=" stroke:none;fill-rule:nonzero;fill:#ef0a1b;fill-opacity:1;" d="M 305.851562 725.527344 C 304.242188 725.527344 302.730469 725.136719 301.324219 724.355469 L 38.917969 578.796875 C 38.1875 578.390625 37.527344 577.902344 36.933594 577.320312 C 36.335938 576.738281 35.828125 576.089844 35.40625 575.375 C 34.984375 574.660156 34.664062 573.898438 34.445312 573.097656 C 34.226562 572.296875 34.117188 571.480469 34.117188 570.648438 L 34.117188 110.585938 C 34.117188 109.765625 34.222656 108.960938 34.4375 108.171875 C 34.648438 107.378906 34.960938 106.628906 35.367188 105.921875 C 35.777344 105.214844 36.273438 104.570312 36.851562 103.992188 C 37.433594 103.414062 38.078125 102.917969 38.789062 102.511719 C 39.496094 102.101562 40.246094 101.792969 41.039062 101.582031 C 41.832031 101.371094 42.636719 101.265625 43.457031 101.265625 C 44.273438 101.269531 45.078125 101.375 45.871094 101.589844 C 46.660156 101.800781 47.410156 102.113281 48.121094 102.523438 L 179.324219 178.527344 C 180.03125 178.9375 180.671875 179.429688 181.25 180.007812 C 181.824219 180.585938 182.316406 181.230469 182.726562 181.9375 C 183.132812 182.644531 183.445312 183.394531 183.65625 184.179688 C 183.867188 184.96875 183.972656 185.773438 183.972656 186.589844 L 183.972656 488.023438 L 310.542969 561.699219 C 311.25 562.109375 311.890625 562.601562 312.464844 563.179688 C 313.039062 563.757812 313.527344 564.402344 313.933594 565.105469 C 314.339844 565.8125 314.648438 566.558594 314.859375 567.347656 C 315.070312 568.132812 315.175781 568.933594 315.175781 569.75 L 315.175781 716.207031 C 315.175781 716.820312 315.117188 717.425781 314.996094 718.023438 C 314.878906 718.625 314.699219 719.207031 314.464844 719.773438 C 314.230469 720.339844 313.945312 720.875 313.605469 721.382812 C 313.265625 721.894531 312.878906 722.363281 312.445312 722.796875 C 312.011719 723.230469 311.539062 723.613281 311.03125 723.953125 C 310.523438 724.292969 309.984375 724.582031 309.417969 724.816406 C 308.855469 725.050781 308.269531 725.226562 307.671875 725.347656 C 307.070312 725.464844 306.464844 725.527344 305.851562 725.527344 Z M 52.769531 565.164062 L 296.523438 700.378906 L 296.523438 575.105469 L 169.953125 501.429688 C 169.246094 501.019531 168.609375 500.523438 168.03125 499.945312 C 167.457031 499.367188 166.96875 498.726562 166.5625 498.019531 C 166.15625 497.3125 165.847656 496.566406 165.636719 495.78125 C 165.425781 494.992188 165.320312 494.191406 165.320312 493.378906 L 165.320312 191.957031 L 52.769531 126.757812 Z M 52.769531 565.164062 "/></g><path style=" stroke:none;fill-rule:nonzero;fill:#ef0a1b;fill-opacity:1;" d="M 174.644531 502.695312 C 174.035156 502.695312 173.425781 502.636719 172.828125 502.515625 C 172.226562 502.398438 171.644531 502.21875 171.078125 501.984375 C 170.511719 501.75 169.972656 501.464844 169.464844 501.125 C 168.957031 500.785156 168.484375 500.398438 168.050781 499.964844 C 167.617188 499.53125 167.234375 499.0625 166.890625 498.554688 C 166.550781 498.042969 166.265625 497.507812 166.03125 496.941406 C 165.796875 496.375 165.621094 495.792969 165.5 495.195312 C 165.382812 494.59375 165.320312 493.988281 165.320312 493.375 L 165.320312 186.589844 C 165.320312 186.011719 165.375 185.4375 165.480469 184.871094 C 165.589844 184.300781 165.746094 183.746094 165.957031 183.207031 C 166.167969 182.667969 166.425781 182.15625 166.730469 181.664062 C 167.039062 181.171875 167.386719 180.714844 167.777344 180.289062 C 168.167969 179.863281 168.597656 179.476562 169.058594 179.128906 C 169.523438 178.78125 170.015625 178.480469 170.535156 178.226562 C 171.054688 177.972656 171.59375 177.765625 172.148438 177.613281 C 172.707031 177.457031 173.273438 177.355469 173.851562 177.304688 L 297.371094 104.230469 C 297.71875 104.023438 298.082031 103.839844 298.457031 103.679688 C 298.832031 103.519531 299.214844 103.386719 299.605469 103.277344 C 300 103.164062 300.398438 103.082031 300.800781 103.023438 C 301.203125 102.96875 301.609375 102.9375 302.015625 102.929688 C 302.421875 102.925781 302.828125 102.949219 303.234375 102.996094 C 303.636719 103.046875 304.035156 103.121094 304.429688 103.222656 C 304.824219 103.320312 305.210938 103.449219 305.589844 103.597656 C 305.96875 103.75 306.332031 103.925781 306.6875 104.125 C 307.042969 104.324219 307.382812 104.546875 307.710938 104.789062 C 308.035156 105.035156 308.34375 105.296875 308.636719 105.582031 C 308.925781 105.867188 309.199219 106.167969 309.449219 106.488281 C 309.703125 106.808594 309.933594 107.144531 310.140625 107.492188 C 310.347656 107.84375 310.53125 108.203125 310.691406 108.578125 C 310.851562 108.953125 310.988281 109.335938 311.097656 109.726562 C 311.207031 110.117188 311.292969 110.515625 311.351562 110.917969 C 311.410156 111.320312 311.441406 111.726562 311.445312 112.132812 L 315.175781 415.097656 C 315.183594 415.914062 315.089844 416.714844 314.886719 417.507812 C 314.6875 418.296875 314.386719 419.050781 313.988281 419.761719 C 313.589844 420.476562 313.105469 421.125 312.535156 421.710938 C 311.964844 422.292969 311.328125 422.796875 310.625 423.214844 L 179.421875 501.382812 C 177.953125 502.257812 176.359375 502.695312 174.648438 502.695312 Z M 183.972656 192.976562 L 183.972656 476.972656 L 296.460938 409.957031 L 292.992188 128.472656 Z M 183.972656 192.976562 "/><g clip-rule="nonzero" clip-path="url(#12f89537c9)"><path style=" stroke:none;fill-rule:nonzero;fill:#ef0a1b;fill-opacity:1;" d="M 305.851562 725.527344 C 305.238281 725.527344 304.632812 725.464844 304.03125 725.347656 C 303.429688 725.226562 302.847656 725.050781 302.28125 724.816406 C 301.714844 724.582031 301.179688 724.296875 300.667969 723.957031 C 300.160156 723.613281 299.691406 723.230469 299.257812 722.796875 C 298.824219 722.363281 298.4375 721.894531 298.097656 721.382812 C 297.757812 720.875 297.46875 720.339844 297.234375 719.773438 C 297 719.207031 296.824219 718.625 296.703125 718.023438 C 296.585938 717.425781 296.523438 716.820312 296.523438 716.207031 L 296.523438 569.75 C 296.523438 568.929688 296.632812 568.125 296.84375 567.332031 C 297.058594 566.539062 297.371094 565.785156 297.785156 565.078125 C 298.195312 564.367188 298.691406 563.722656 299.273438 563.144531 C 299.859375 562.566406 300.503906 562.070312 301.21875 561.664062 L 568.285156 408.917969 C 568.636719 408.714844 569 408.539062 569.378906 408.382812 C 569.753906 408.230469 570.136719 408.101562 570.53125 407.996094 C 570.925781 407.890625 571.324219 407.816406 571.726562 407.761719 C 572.128906 407.710938 572.535156 407.6875 572.941406 407.6875 C 573.347656 407.6875 573.753906 407.714844 574.15625 407.769531 C 574.558594 407.824219 574.957031 407.902344 575.351562 408.011719 C 575.742188 408.117188 576.128906 408.246094 576.503906 408.402344 C 576.878906 408.558594 577.242188 408.738281 577.59375 408.945312 C 577.945312 409.148438 578.28125 409.375 578.605469 409.621094 C 578.925781 409.871094 579.230469 410.136719 579.519531 410.425781 C 579.804688 410.714844 580.074219 411.019531 580.320312 411.339844 C 580.566406 411.664062 580.792969 412 580.996094 412.351562 C 581.199219 412.707031 581.378906 413.070312 581.535156 413.445312 C 581.6875 413.820312 581.820312 414.203125 581.925781 414.597656 C 582.03125 414.988281 582.109375 415.386719 582.160156 415.789062 C 582.214844 416.195312 582.242188 416.597656 582.242188 417.003906 L 582.242188 569.75 C 582.242188 570.585938 582.132812 571.40625 581.910156 572.210938 C 581.691406 573.015625 581.367188 573.777344 580.941406 574.496094 C 580.515625 575.214844 580.003906 575.863281 579.402344 576.445312 C 578.800781 577.027344 578.136719 577.519531 577.402344 577.917969 L 310.335938 724.375 C 308.941406 725.140625 307.445312 725.527344 305.851562 725.527344 Z M 315.175781 575.152344 L 315.175781 700.464844 L 563.589844 564.234375 L 563.589844 433.074219 Z M 315.175781 575.152344 "/></g><path style=" stroke:none;fill-rule:nonzero;fill:#ef0a1b;fill-opacity:1;" d="M 305.851562 579.070312 C 304.171875 579.070312 302.605469 578.644531 301.15625 577.800781 L 169.953125 501.429688 C 169.605469 501.226562 169.269531 501 168.949219 500.753906 C 168.628906 500.507812 168.328125 500.242188 168.042969 499.953125 C 167.757812 499.667969 167.492188 499.367188 167.246094 499.046875 C 167 498.726562 166.777344 498.390625 166.574219 498.039062 C 166.371094 497.691406 166.191406 497.332031 166.039062 496.957031 C 165.882812 496.585938 165.753906 496.203125 165.648438 495.8125 C 165.539062 495.425781 165.460938 495.03125 165.40625 494.628906 C 165.351562 494.230469 165.324219 493.828125 165.320312 493.425781 C 165.320312 493.019531 165.34375 492.617188 165.394531 492.21875 C 165.445312 491.816406 165.519531 491.421875 165.621094 491.03125 C 165.722656 490.640625 165.851562 490.257812 166 489.882812 C 166.152344 489.511719 166.328125 489.148438 166.527344 488.796875 C 166.726562 488.445312 166.945312 488.105469 167.1875 487.785156 C 167.429688 487.460938 167.695312 487.15625 167.976562 486.867188 C 168.257812 486.578125 168.558594 486.308594 168.875 486.058594 C 169.191406 485.808594 169.523438 485.582031 169.871094 485.375 L 301.074219 407.207031 C 301.171875 407.148438 301.273438 407.09375 301.375 407.039062 L 434.457031 334.257812 C 435.148438 333.878906 435.878906 333.59375 436.640625 333.398438 C 437.40625 333.203125 438.179688 333.109375 438.96875 333.113281 C 439.757812 333.113281 440.535156 333.214844 441.296875 333.414062 C 442.058594 333.613281 442.785156 333.90625 443.472656 334.289062 L 577.453125 408.863281 C 578.175781 409.265625 578.832031 409.753906 579.425781 410.332031 C 580.015625 410.90625 580.523438 411.550781 580.945312 412.261719 C 581.363281 412.96875 581.683594 413.722656 581.90625 414.519531 C 582.125 415.3125 582.238281 416.125 582.242188 416.949219 C 582.246094 417.773438 582.144531 418.585938 581.933594 419.386719 C 581.722656 420.183594 581.410156 420.9375 581 421.65625 C 580.585938 422.371094 580.085938 423.019531 579.503906 423.601562 C 578.917969 424.183594 578.265625 424.679688 577.550781 425.089844 L 310.484375 577.835938 C 309.046875 578.65625 307.503906 579.066406 305.851562 579.066406 Z M 193.011719 493.285156 L 305.890625 558.992188 L 553.953125 417.113281 L 438.894531 353.074219 L 310.480469 423.300781 Z M 193.011719 493.285156 "/><path style=" stroke:none;fill-rule:nonzero;fill:#ef0a1b;fill-opacity:1;" d="M 572.914062 426.320312 C 571.300781 426.320312 569.789062 425.929688 568.378906 425.144531 L 434.394531 350.570312 C 433.667969 350.164062 433.007812 349.671875 432.410156 349.089844 C 431.816406 348.507812 431.308594 347.855469 430.886719 347.140625 C 430.464844 346.421875 430.148438 345.660156 429.929688 344.855469 C 429.714844 344.054688 429.605469 343.234375 429.609375 342.402344 L 430.058594 187.09375 C 430.058594 186.6875 430.085938 186.285156 430.140625 185.882812 C 430.195312 185.480469 430.277344 185.082031 430.382812 184.691406 C 430.488281 184.300781 430.617188 183.917969 430.773438 183.542969 C 430.929688 183.167969 431.109375 182.804688 431.3125 182.453125 C 431.515625 182.101562 431.742188 181.765625 431.988281 181.445312 C 432.238281 181.125 432.503906 180.820312 432.792969 180.53125 C 433.078125 180.246094 433.382812 179.976562 433.703125 179.730469 C 434.027344 179.484375 434.363281 179.257812 434.714844 179.054688 C 435.066406 178.851562 435.429688 178.671875 435.804688 178.515625 C 436.179688 178.363281 436.5625 178.230469 436.957031 178.125 C 437.347656 178.019531 437.746094 177.941406 438.148438 177.886719 C 438.550781 177.832031 438.953125 177.804688 439.359375 177.804688 C 439.765625 177.804688 440.167969 177.828125 440.574219 177.878906 C 440.976562 177.929688 441.371094 178.007812 441.765625 178.113281 C 442.15625 178.214844 442.542969 178.34375 442.917969 178.5 C 443.292969 178.652344 443.65625 178.832031 444.011719 179.03125 L 577.539062 255.273438 C 578.253906 255.679688 578.902344 256.175781 579.488281 256.753906 C 580.070312 257.332031 580.566406 257.976562 580.980469 258.6875 C 581.394531 259.398438 581.707031 260.148438 581.921875 260.941406 C 582.132812 261.738281 582.242188 262.542969 582.242188 263.367188 L 582.242188 417.003906 C 582.242188 417.617188 582.179688 418.222656 582.0625 418.824219 C 581.941406 419.421875 581.765625 420.007812 581.53125 420.570312 C 581.296875 421.136719 581.007812 421.671875 580.667969 422.183594 C 580.328125 422.691406 579.941406 423.160156 579.507812 423.59375 C 579.078125 424.027344 578.605469 424.414062 578.097656 424.753906 C 577.585938 425.09375 577.050781 425.378906 576.484375 425.613281 C 575.917969 425.847656 575.335938 426.023438 574.734375 426.144531 C 574.132812 426.265625 573.527344 426.324219 572.914062 426.324219 Z M 448.273438 336.960938 L 563.589844 401.148438 L 563.589844 268.769531 L 448.664062 203.152344 L 448.273438 336.964844 Z M 448.273438 336.960938 "/><g clip-rule="nonzero" clip-path="url(#1b1bef916b)"><path style=" stroke:none;fill-rule:nonzero;fill:#ef0a1b;fill-opacity:1;" d="M 572.914062 426.320312 C 572.304688 426.320312 571.695312 426.261719 571.097656 426.144531 C 570.496094 426.023438 569.914062 425.847656 569.347656 425.613281 C 568.78125 425.378906 568.242188 425.089844 567.734375 424.75 C 567.226562 424.410156 566.753906 424.027344 566.320312 423.59375 C 565.886719 423.160156 565.503906 422.691406 565.160156 422.179688 C 564.820312 421.671875 564.535156 421.136719 564.300781 420.570312 C 564.066406 420.003906 563.890625 419.421875 563.769531 418.820312 C 563.648438 418.222656 563.589844 417.617188 563.589844 417.003906 L 563.589844 263.367188 C 563.589844 262.542969 563.699219 261.734375 563.910156 260.941406 C 564.125 260.144531 564.441406 259.394531 564.855469 258.683594 C 565.265625 257.972656 565.765625 257.328125 566.351562 256.746094 C 566.9375 256.167969 567.585938 255.675781 568.300781 255.269531 L 702.285156 179.027344 C 702.636719 178.824219 703 178.648438 703.378906 178.496094 C 703.753906 178.339844 704.136719 178.214844 704.53125 178.109375 C 704.925781 178.007812 705.324219 177.929688 705.726562 177.878906 C 706.128906 177.828125 706.535156 177.804688 706.941406 177.804688 C 707.347656 177.808594 707.75 177.835938 708.152344 177.890625 C 708.554688 177.945312 708.953125 178.023438 709.34375 178.132812 C 709.738281 178.238281 710.121094 178.371094 710.496094 178.527344 C 710.871094 178.683594 711.234375 178.863281 711.585938 179.066406 C 711.9375 179.269531 712.273438 179.496094 712.59375 179.746094 C 712.914062 179.992188 713.21875 180.261719 713.507812 180.546875 C 713.792969 180.835938 714.058594 181.140625 714.304688 181.464844 C 714.554688 181.785156 714.777344 182.125 714.980469 182.476562 C 715.183594 182.828125 715.363281 183.191406 715.515625 183.566406 C 715.671875 183.941406 715.800781 184.324219 715.90625 184.71875 C 716.011719 185.109375 716.089844 185.507812 716.144531 185.910156 C 716.195312 186.3125 716.222656 186.714844 716.222656 187.121094 L 716.222656 342.429688 C 716.222656 343.257812 716.113281 344.074219 715.894531 344.875 C 715.679688 345.675781 715.359375 346.433594 714.9375 347.152344 C 714.515625 347.867188 714.007812 348.515625 713.414062 349.09375 C 712.820312 349.675781 712.160156 350.167969 711.4375 350.570312 L 577.453125 425.144531 C 576.042969 425.929688 574.53125 426.324219 572.914062 426.320312 Z M 582.242188 268.78125 L 582.242188 401.148438 L 697.574219 336.953125 L 697.574219 203.152344 Z M 582.242188 268.78125 "/></g><g clip-rule="nonzero" clip-path="url(#7d8dca615d)"><path style=" stroke:none;fill-rule:nonzero;fill:#ef0a1b;fill-opacity:1;" d="M 572.914062 272.679688 C 571.265625 272.683594 569.722656 272.273438 568.289062 271.453125 L 434.757812 195.210938 C 434.042969 194.800781 433.390625 194.308594 432.808594 193.726562 C 432.222656 193.144531 431.722656 192.496094 431.3125 191.78125 C 430.898438 191.066406 430.585938 190.3125 430.375 189.515625 C 430.160156 188.71875 430.058594 187.910156 430.058594 187.085938 C 430.0625 186.261719 430.175781 185.449219 430.390625 184.65625 C 430.609375 183.859375 430.929688 183.109375 431.347656 182.398438 C 431.765625 181.6875 432.269531 181.042969 432.859375 180.464844 C 433.449219 179.890625 434.101562 179.398438 434.820312 178.996094 L 568.351562 104.121094 C 569.046875 103.730469 569.78125 103.4375 570.554688 103.234375 C 571.324219 103.03125 572.109375 102.929688 572.910156 102.929688 C 573.707031 102.929688 574.492188 103.03125 575.265625 103.230469 C 576.035156 103.429688 576.769531 103.726562 577.46875 104.117188 L 711.449219 178.988281 C 712.171875 179.390625 712.828125 179.882812 713.417969 180.457031 C 714.007812 181.035156 714.511719 181.679688 714.933594 182.390625 C 715.351562 183.101562 715.671875 183.855469 715.890625 184.652344 C 716.109375 185.449219 716.21875 186.257812 716.222656 187.085938 C 716.226562 187.910156 716.121094 188.722656 715.910156 189.519531 C 715.695312 190.316406 715.382812 191.074219 714.96875 191.789062 C 714.554688 192.503906 714.054688 193.152344 713.46875 193.734375 C 712.882812 194.3125 712.230469 194.808594 711.511719 195.21875 L 577.53125 271.460938 C 576.101562 272.273438 574.5625 272.683594 572.914062 272.679688 Z M 458.308594 187.195312 L 572.921875 252.636719 L 687.921875 187.195312 L 572.921875 122.929688 Z M 458.308594 187.195312 "/></g></g></svg>