<svg xmlns="http://www.w3.org/2000/svg" xmlns:xlink="http://www.w3.org/1999/xlink" width="1000" zoomAndPan="magnify" viewBox="0 0 750 749.999995" height="1000" preserveAspectRatio="xMidYMid meet" version="1.2"><defs><clipPath id="25098392b7"><path d="M 17 137.011719 L 733 137.011719 L 733 613 L 17 613 Z M 17 137.011719 "/></clipPath></defs><g id="0f1e58666d"><g clip-rule="nonzero" clip-path="url(#25098392b7)"><path style=" stroke:none;fill-rule:nonzero;fill:#087de8;fill-opacity:1;" d="M 94.171875 450.460938 C 94.171875 333.925781 152.257812 214.8125 221.542969 214.8125 C 259.023438 214.8125 290.375 236.476562 338.402344 305.1875 C 292.828125 375.085938 265.199219 418.945312 265.199219 418.945312 C 204.496094 514.148438 183.445312 535.484375 149.683594 535.484375 C 114.894531 535.484375 94.210938 504.949219 94.210938 450.460938 M 494.386719 406.972656 L 452.449219 336.953125 C 441.085938 318.472656 430.183594 301.46875 419.75 285.9375 C 457.597656 227.527344 488.832031 198.421875 526.023438 198.421875 C 603.160156 198.421875 665.003906 311.976562 665.003906 451.484375 C 665.003906 504.621094 647.589844 535.523438 611.496094 535.523438 C 576.914062 535.523438 560.402344 512.675781 494.714844 407.011719 M 384.878906 237.457031 C 327.652344 164.738281 280.035156 137.023438 222.851562 137.023438 C 106.3125 137.023438 17.039062 288.671875 17.039062 449.152344 C 17.039062 549.585938 65.644531 612.941406 147.023438 612.941406 C 205.597656 612.941406 247.742188 585.3125 322.789062 454.425781 L 374.785156 361.269531 C 391.753906 388.683594 402.441406 407.199219 433.6875 459.617188 C 502.113281 574.066406 540.207031 612.898438 609.453125 612.898438 C 688.753906 612.898438 732.855469 548.6875 732.855469 446.171875 C 732.855469 278.128906 641.582031 136.984375 530.6875 136.984375 C 471.945312 136.984375 426.042969 181.214844 384.511719 237.414062 "/></g></g></svg>