<svg xmlns="http://www.w3.org/2000/svg" xmlns:xlink="http://www.w3.org/1999/xlink" width="1000" zoomAndPan="magnify" viewBox="0 0 750 749.999995" height="1000" preserveAspectRatio="xMidYMid meet" version="1.2"><defs><clipPath id="c686d34bcc"><path d="M 214 16.277344 L 379 16.277344 L 379 647 L 214 647 Z M 214 16.277344 "/></clipPath><clipPath id="a97c4fb62a"><path d="M 362 555 L 403 555 L 403 734.027344 L 362 734.027344 Z M 362 555 "/></clipPath></defs><g id="37738a3482"><path style=" stroke:none;fill-rule:nonzero;fill:#599636;fill-opacity:1;" d="M 373.980469 18.230469 L 393.140625 54.207031 C 397.445312 60.847656 402.113281 66.722656 407.609375 72.195312 C 423.648438 88.234375 438.882812 105.03125 452.566406 123.019531 C 485.027344 165.636719 506.921875 212.964844 522.558594 264.148438 C 531.9375 295.414062 537.03125 327.488281 537.410156 359.921875 C 538.980469 456.886719 505.734375 540.144531 438.703125 609.339844 C 427.753906 620.289062 416.042969 630.425781 403.480469 639.441406 C 396.839844 639.441406 393.699219 634.351562 390.960938 629.664062 C 385.871094 621.074219 382.75 611.269531 381.179688 601.511719 C 378.824219 589.78125 377.277344 578.050781 378.039062 565.941406 L 378.039062 560.46875 C 377.503906 559.300781 371.648438 20.988281 373.980469 18.230469 Z M 373.980469 18.230469 "/><g clip-rule="nonzero" clip-path="url(#c686d34bcc)"><path style=" stroke:none;fill-rule:nonzero;fill:#6cac48;fill-opacity:1;" d="M 373.980469 17.039062 C 373.195312 15.472656 372.410156 16.660156 371.625 17.421875 C 372.007812 25.273438 369.269531 32.269531 364.984375 38.953125 C 360.273438 45.59375 354.035156 50.683594 347.777344 56.160156 C 313.003906 86.257812 285.636719 122.617188 263.71875 163.28125 C 234.554688 218.011719 219.523438 276.664062 215.261719 338.414062 C 213.308594 360.6875 222.304688 439.28125 229.328125 461.957031 C 248.484375 522.15625 282.898438 572.601562 327.476562 616.382812 C 338.421875 626.925781 350.132812 636.707031 362.246094 646.105469 C 365.769531 646.105469 366.152344 642.964844 366.957031 640.632812 C 368.503906 635.632812 369.679688 630.550781 370.480469 625.378906 L 378.332031 566.746094 Z M 373.980469 17.039062 "/></g><g clip-rule="nonzero" clip-path="url(#a97c4fb62a)"><path style=" stroke:none;fill-rule:nonzero;fill:#c2bfbf;fill-opacity:1;" d="M 393.140625 663.261719 C 393.925781 654.289062 398.230469 646.84375 402.917969 639.417969 C 398.207031 637.46875 394.710938 633.589844 391.972656 629.257812 C 389.617188 625.355469 387.664062 620.667969 386.140625 616.363281 C 380.664062 599.945312 379.5 582.71875 377.929688 565.941406 L 377.929688 555.78125 C 375.976562 557.351562 375.574219 570.628906 375.574219 572.601562 C 374.429688 590.355469 372.082031 607.949219 368.527344 625.378906 C 367.363281 632.421875 366.578125 639.441406 362.246094 645.699219 C 362.246094 646.484375 362.246094 647.269531 362.628906 648.4375 C 369.671875 669.160156 371.601562 690.269531 372.792969 711.777344 L 372.792969 719.628906 C 372.792969 729.003906 372.410156 727.03125 380.195312 730.171875 C 383.335938 731.335938 386.835938 731.742188 389.976562 734.074219 C 392.332031 734.074219 392.710938 732.121094 392.710938 730.550781 L 391.546875 717.65625 L 391.546875 681.675781 C 391.164062 675.398438 392.332031 669.160156 393.117188 663.285156 Z M 393.140625 663.261719 "/></g></g></svg>