<svg xmlns="http://www.w3.org/2000/svg" xmlns:xlink="http://www.w3.org/1999/xlink" width="1000" zoomAndPan="magnify" viewBox="0 0 750 749.999995" height="1000" preserveAspectRatio="xMidYMid meet" version="1.2"><defs><clipPath id="25f098730d"><path d="M 28 419 L 315 419 L 315 558.382812 L 28 558.382812 Z M 28 419 "/></clipPath></defs><g id="9e578f4e2b"><g clip-rule="nonzero" clip-path="url(#25f098730d)"><path style=" stroke:none;fill-rule:nonzero;fill:#00618a;fill-opacity:1;" d="M 28.570312 526.695312 L 51.40625 526.695312 L 51.40625 436.582031 L 86.757812 515.167969 C 90.925781 524.640625 96.640625 528.042969 107.835938 528.042969 C 119.035156 528.042969 124.523438 524.675781 128.699219 515.167969 L 164.054688 436.582031 L 164.054688 526.726562 L 186.894531 526.726562 L 186.894531 436.730469 C 186.894531 427.953125 183.375 423.707031 176.132812 421.515625 C 158.785156 416.101562 147.144531 420.78125 141.878906 432.488281 L 107.1875 510.042969 L 73.585938 432.457031 C 68.535156 420.75 56.679688 416.066406 39.332031 421.480469 C 32.082031 423.675781 28.570312 427.921875 28.570312 436.699219 Z M 205.875 453.324219 L 228.707031 453.324219 L 228.707031 502.992188 C 228.492188 505.691406 229.570312 512.023438 242.082031 512.21875 C 248.464844 512.316406 291.339844 512.21875 291.742188 512.21875 L 291.742188 453.078125 L 314.621094 453.078125 C 314.722656 453.078125 314.597656 533.714844 314.601562 534.058594 C 314.726562 553.945312 289.914062 558.265625 278.480469 558.601562 L 206.375 558.601562 L 206.375 543.242188 L 278.609375 543.238281 C 293.304688 541.683594 291.570312 534.382812 291.570312 531.925781 L 291.570312 525.9375 L 243.035156 525.9375 C 220.453125 525.734375 206.074219 515.878906 205.894531 504.542969 C 205.878906 503.527344 206.382812 453.8125 205.882812 453.320312 Z M 205.875 453.324219 "/></g><path style=" stroke:none;fill-rule:nonzero;fill:#e48e00;fill-opacity:1;" d="M 332.222656 526.695312 L 397.878906 526.695312 C 405.5625 526.695312 413.03125 525.085938 418.964844 522.300781 C 428.847656 517.769531 433.679688 511.621094 433.679688 503.574219 L 433.679688 486.894531 C 433.679688 480.304688 428.1875 474.160156 417.433594 470.0625 C 411.722656 467.863281 404.695312 466.699219 397.890625 466.699219 L 370.21875 466.699219 C 361 466.699219 356.605469 463.917969 355.511719 457.773438 C 355.289062 457.042969 355.289062 456.417969 355.289062 455.722656 L 355.289062 445.335938 C 355.289062 444.75 355.289062 444.160156 355.511719 443.429688 C 356.605469 438.75 359.023438 437.429688 367.144531 436.664062 C 367.804688 436.664062 368.683594 436.515625 369.347656 436.515625 L 434.5625 436.515625 L 434.5625 421.300781 L 370.441406 421.300781 C 361.21875 421.300781 356.390625 421.886719 351.996094 423.203125 C 338.363281 427.449219 332.433594 434.214844 332.433594 445.921875 L 332.433594 459.238281 C 332.433594 469.480469 344.078125 478.261719 363.613281 480.308594 C 365.8125 480.453125 368.007812 480.601562 370.199219 480.601562 L 393.914062 480.601562 C 394.796875 480.601562 395.675781 480.601562 396.332031 480.75 C 403.574219 481.332031 406.65625 482.648438 408.847656 485.28125 C 410.203125 486.636719 410.609375 487.921875 410.609375 489.34375 L 410.609375 502.660156 C 410.609375 504.269531 409.511719 506.320312 407.316406 508.070312 C 405.339844 509.832031 402.046875 511 397.652344 511.292969 C 396.773438 511.292969 396.117188 511.4375 395.238281 511.4375 L 332.21875 511.4375 L 332.21875 526.65625 Z M 576.132812 500.210938 C 576.132812 515.867188 587.769531 524.648438 611.265625 526.402344 C 613.457031 526.574219 615.652344 526.667969 617.851562 526.695312 L 677.359375 526.695312 L 677.359375 511.476562 L 617.410156 511.476562 C 604.019531 511.476562 598.964844 508.109375 598.964844 500.0625 L 598.964844 421.332031 L 576.128906 421.332031 L 576.128906 500.203125 Z M 448.246094 501 L 448.246094 446.75 C 448.246094 432.964844 457.925781 424.605469 477.070312 421.96875 C 479.113281 421.675781 481.167969 421.527344 483.230469 421.527344 L 526.578125 421.527344 C 528.714844 421.527344 530.84375 421.675781 532.960938 421.96875 C 552.105469 424.605469 561.785156 432.964844 561.785156 446.75 L 561.785156 501 C 561.785156 512.183594 557.671875 518.167969 548.195312 522.070312 L 570.691406 542.367188 L 544.175781 542.367188 L 525.976562 525.945312 L 507.65625 527.105469 L 483.230469 527.105469 C 479.050781 527.105469 474.652344 526.519531 469.808594 525.199219 C 455.253906 521.238281 448.25 513.613281 448.25 501 Z M 472.894531 499.648438 C 472.894531 500.382812 473.117188 501.113281 473.335938 501.996094 C 474.6875 508.300781 480.59375 511.820312 489.582031 511.820312 L 510.328125 511.820312 L 491.273438 494.625 L 517.789062 494.625 L 534.375 509.621094 C 537.4375 507.992188 539.449219 505.496094 540.128906 502.289062 C 540.347656 501.558594 540.347656 500.824219 540.347656 500.089844 L 540.347656 448.074219 C 540.347656 447.488281 540.347656 446.71875 540.128906 446.019531 C 538.773438 440.15625 532.863281 436.78125 524.0625 436.78125 L 489.640625 436.78125 C 479.488281 436.78125 472.921875 441.179688 472.921875 448.074219 L 472.921875 499.6875 Z M 472.894531 499.648438 "/><path style=" stroke:none;fill-rule:nonzero;fill:#00618a;fill-opacity:1;" d="M 697.4375 396.085938 C 683.402344 395.707031 672.675781 397.007812 663.511719 400.871094 C 660.902344 401.972656 656.75 402 656.324219 405.265625 C 657.757812 406.761719 657.984375 409.003906 659.117188 410.847656 C 661.308594 414.386719 665.007812 419.136719 668.300781 421.617188 C 671.902344 424.335938 675.609375 427.246094 679.480469 429.601562 C 686.351562 433.792969 694.019531 436.183594 700.632812 440.375 C 704.53125 442.84375 708.402344 445.957031 712.207031 448.753906 C 714.085938 450.132812 715.355469 452.277344 717.792969 453.140625 L 717.792969 452.742188 C 716.507812 451.109375 716.179688 448.859375 715 447.160156 L 709.8125 441.972656 C 704.734375 435.207031 698.296875 429.328125 691.449219 424.414062 C 685.992188 420.496094 673.769531 415.203125 671.492188 408.851562 L 671.09375 408.449219 C 674.964844 408.011719 679.496094 406.613281 683.074219 405.660156 C 689.074219 404.050781 694.4375 404.464844 700.640625 402.867188 L 709.023438 400.472656 L 709.023438 398.875 C 705.890625 395.660156 703.65625 391.410156 700.242188 388.503906 C 691.304688 380.890625 681.546875 373.296875 671.503906 366.953125 C 665.933594 363.433594 659.050781 361.152344 653.144531 358.171875 C 651.15625 357.171875 647.667969 356.648438 646.355469 354.976562 C 643.257812 351.027344 641.566406 346.011719 639.175781 341.445312 C 634.164062 331.800781 629.246094 321.265625 624.804688 311.121094 C 621.773438 304.203125 619.792969 297.378906 616.023438 291.167969 C 597.898438 261.382812 578.386719 243.402344 548.167969 225.734375 C 541.738281 221.980469 533.996094 220.492188 525.8125 218.554688 L 512.640625 217.753906 C 509.960938 216.636719 507.171875 213.355469 504.652344 211.765625 C 494.640625 205.4375 468.960938 191.691406 461.546875 209.734375 C 456.867188 221.148438 468.542969 232.28125 472.722656 238.066406 C 475.652344 242.128906 479.410156 246.671875 481.503906 251.234375 C 482.878906 254.234375 483.121094 257.242188 484.296875 260.414062 C 487.199219 268.195312 489.722656 276.730469 493.476562 283.957031 C 495.371094 287.609375 497.464844 291.460938 499.863281 294.726562 C 501.335938 296.734375 503.859375 297.617188 504.253906 300.714844 C 501.789062 304.167969 501.648438 309.511719 500.261719 313.882812 C 494.023438 333.546875 496.375 357.984375 505.449219 372.539062 C 508.234375 377.007812 514.789062 386.589844 523.808594 382.914062 C 531.695312 379.699219 529.902344 369.753906 532.195312 360.96875 C 532.703125 358.972656 532.390625 357.519531 533.390625 356.183594 L 533.390625 356.582031 L 540.578125 370.945312 C 545.890625 379.503906 555.335938 388.453125 563.328125 394.492188 C 567.476562 397.621094 570.773438 403.035156 576.101562 404.863281 L 576.101562 404.464844 L 575.703125 404.464844 C 574.664062 402.839844 573.039062 402.175781 571.710938 400.878906 C 568.585938 397.816406 565.109375 394.011719 562.527344 390.507812 C 555.25 380.632812 548.824219 369.832031 542.96875 358.585938 C 540.175781 353.214844 537.742188 347.289062 535.390625 341.828125 C 534.480469 339.71875 534.492188 336.535156 532.597656 335.441406 C 530.015625 339.449219 526.210938 342.683594 524.214844 347.414062 C 521.019531 354.972656 520.605469 364.1875 519.421875 373.75 C 518.722656 374 519.035156 373.828125 518.625 374.148438 C 513.066406 372.808594 511.109375 367.085938 509.046875 362.175781 C 503.820312 349.761719 502.851562 329.777344 507.449219 315.496094 C 508.632812 311.800781 514.015625 300.15625 511.839844 296.742188 C 510.800781 293.335938 507.371094 291.328125 505.453125 288.757812 C 503.082031 285.542969 500.707031 281.300781 499.066406 277.585938 C 494.789062 267.910156 492.789062 257.046875 488.289062 247.261719 C 486.136719 242.585938 482.5 237.855469 479.507812 233.726562 C 476.199219 229.125 472.492188 225.730469 469.929688 220.195312 C 469.015625 218.214844 467.777344 215.050781 469.132812 213.011719 C 469.265625 212.414062 469.546875 211.898438 469.980469 211.464844 C 470.414062 211.03125 470.929688 210.746094 471.527344 210.617188 C 473.84375 208.832031 480.292969 211.207031 482.703125 212.210938 C 489.101562 214.871094 494.449219 217.402344 499.871094 220.992188 C 502.476562 222.683594 505.105469 226.054688 508.25 226.980469 L 511.839844 226.980469 C 517.457031 228.273438 523.753906 227.386719 529 228.976562 C 538.28125 231.796875 546.59375 236.183594 554.148438 240.945312 C 577.15625 255.46875 595.964844 276.140625 608.832031 300.832031 C 610.902344 304.800781 611.796875 308.59375 613.621094 312.800781 C 617.300781 321.261719 621.933594 330.03125 625.597656 338.335938 C 629.25 346.625 632.804688 354.980469 637.96875 361.875 C 640.683594 365.496094 651.171875 367.445312 655.933594 369.453125 C 659.273438 370.867188 664.742188 372.335938 667.90625 374.242188 C 673.949219 377.886719 679.804688 382.226562 685.472656 386.21875 C 688.304688 388.214844 697.015625 392.589844 697.449219 396.191406 Z M 697.4375 396.085938 "/><path style=" stroke:none;fill-rule:evenodd;fill:#00618a;fill-opacity:1;" d="M 519.035156 244.066406 C 516.105469 244.011719 514.039062 244.382812 511.847656 244.863281 L 511.847656 245.265625 L 512.25 245.265625 C 513.644531 248.132812 516.105469 249.976562 517.832031 252.445312 L 521.828125 260.824219 L 522.226562 260.425781 C 524.695312 258.683594 525.832031 255.898438 525.8125 251.644531 C 524.820312 250.601562 524.675781 249.296875 523.816406 248.050781 C 522.675781 246.394531 520.433594 245.453125 519.027344 244.058594 Z M 519.035156 244.066406 "/><path style=" stroke:none;fill-rule:evenodd;fill:#e48e00;fill-opacity:1;" d="M 688.097656 511.042969 C 688.097656 521.089844 696.039062 527.863281 704.925781 527.863281 C 713.808594 527.863281 721.753906 521.089844 721.753906 511.042969 C 721.753906 500.996094 713.808594 494.222656 704.925781 494.222656 C 696.039062 494.222656 688.097656 500.996094 688.097656 511.042969 Z M 717.984375 511.042969 C 717.984375 518.667969 712.152344 524.367188 704.917969 524.367188 C 697.605469 524.367188 691.851562 518.667969 691.851562 511.042969 C 691.851562 503.417969 697.601562 497.71875 704.917969 497.71875 C 712.144531 497.71875 717.984375 503.417969 717.984375 511.042969 Z M 709.453125 520.644531 L 713.21875 520.644531 L 707.703125 512.214844 C 710.664062 511.898438 712.90625 510.460938 712.90625 506.960938 C 712.90625 503.058594 710.433594 501.449219 705.683594 501.449219 L 698.1875 501.449219 L 698.1875 520.648438 L 701.417969 520.648438 L 701.417969 512.347656 L 704.421875 512.347656 L 709.449219 520.648438 Z M 701.417969 509.648438 L 701.417969 504.132812 L 705.140625 504.132812 C 707.070312 504.132812 709.40625 504.492188 709.40625 506.738281 C 709.40625 509.429688 707.296875 509.65625 704.871094 509.65625 L 701.417969 509.65625 Z M 701.417969 509.648438 "/></g></svg>