<svg xmlns="http://www.w3.org/2000/svg" xmlns:xlink="http://www.w3.org/1999/xlink" width="1000" zoomAndPan="magnify" viewBox="0 0 750 749.999995" height="1000" preserveAspectRatio="xMidYMid meet" version="1.2"><defs><clipPath id="afdb1e625f"><path d="M 14.433594 62 L 735.933594 62 L 735.933594 688 L 14.433594 688 Z M 14.433594 62 "/></clipPath></defs><g id="a73a4f00b9"><path style=" stroke:none;fill-rule:nonzero;fill:#53c1de;fill-opacity:1;" d="M 439.609375 374.488281 C 439.609375 340.003906 410.765625 312.042969 375.183594 312.042969 C 339.601562 312.042969 310.753906 340.003906 310.753906 374.488281 C 310.753906 408.980469 339.601562 436.941406 375.183594 436.941406 C 410.765625 436.941406 439.609375 408.980469 439.609375 374.488281 Z M 439.609375 374.488281 "/><g clip-rule="nonzero" clip-path="url(#afdb1e625f)"><path style=" stroke:none;fill-rule:evenodd;fill:#53c1de;fill-opacity:1;" d="M 584.425781 258.550781 C 598.03125 204.964844 615.132812 105.589844 554.84375 71.898438 C 494.835938 38.351562 416.75 102.628906 375.515625 141.210938 C 334.402344 103.015625 254.121094 39.011719 193.882812 72.808594 C 133.902344 106.46875 152.398438 204.195312 166.304688 258.121094 C 110.351562 273.523438 14.433594 306.703125 14.433594 374.488281 C 14.433594 442.085938 110.25 478.183594 165.875 493.574219 C 151.914062 547.796875 134.34375 644.128906 194.40625 677.710938 C 254.867188 711.5 334.898438 649.023438 376.515625 610.019531 C 418.011719 648.828125 495.351562 711.714844 555.371094 678.039062 C 615.574219 644.257812 599.894531 546.214844 585.988281 491.976562 C 639.90625 476.554688 735.933594 441.242188 735.933594 374.488281 C 735.933594 307.355469 639.5 273.90625 584.425781 258.550781 Z M 577.589844 463.234375 C 568.460938 435.214844 556.132812 405.417969 541.058594 374.640625 C 555.449219 344.585938 567.296875 315.175781 576.171875 287.335938 C 616.546875 298.683594 705.113281 324.613281 705.113281 374.488281 C 705.113281 424.835938 620.121094 451.011719 577.589844 463.234375 Z M 539.925781 652.183594 C 495.144531 677.308594 428.625 617.167969 397.976562 588.589844 C 418.308594 567.035156 438.625 541.976562 458.453125 514.152344 C 493.335938 511.15625 526.289062 506.25 556.171875 499.554688 C 565.960938 537.917969 584.902344 626.945312 539.925781 652.183594 Z M 209.804688 651.824219 C 165.019531 626.792969 185.488281 540.832031 195.757812 500.890625 C 225.308594 507.230469 258.023438 511.789062 292.988281 514.535156 C 312.949219 541.761719 333.855469 566.785156 354.921875 588.703125 C 328.894531 613.109375 254.800781 676.972656 209.804688 651.824219 Z M 45.25 374.488281 C 45.25 323.957031 133.289062 298.214844 174.582031 286.894531 C 183.613281 315.359375 195.453125 345.121094 209.746094 375.21875 C 195.269531 405.761719 183.257812 435.996094 174.144531 464.796875 C 134.769531 453.871094 45.25 425.054688 45.25 374.488281 Z M 209.324219 98.664062 C 254.292969 73.4375 324.070312 134.878906 353.917969 162.535156 C 332.960938 184.351562 312.246094 209.191406 292.457031 236.261719 C 258.523438 239.308594 226.042969 244.203125 196.179688 250.761719 C 184.976562 207.269531 164.40625 123.867188 209.324219 98.664062 Z M 480.503906 268.730469 C 503.523438 271.546875 525.582031 275.292969 546.289062 279.875 C 540.074219 299.191406 532.324219 319.390625 523.199219 340.09375 C 509.96875 315.765625 495.765625 291.921875 480.503906 268.730469 Z M 375.527344 183.886719 C 389.742188 198.8125 403.980469 215.484375 417.984375 233.566406 C 389.574219 232.265625 361.121094 232.257812 332.710938 233.546875 C 346.726562 215.632812 361.089844 198.988281 375.527344 183.886719 Z M 227.429688 340.074219 C 218.453125 319.441406 210.777344 299.152344 204.503906 279.5625 C 225.089844 275.097656 247.042969 271.445312 269.914062 268.675781 C 254.609375 291.816406 240.433594 315.648438 227.429688 340.074219 Z M 270.570312 482.4375 C 246.945312 479.878906 224.660156 476.417969 204.078125 472.074219 C 210.449219 452.136719 218.296875 431.414062 227.464844 410.335938 C 240.644531 435.015625 255.039062 459.078125 270.570312 482.4375 Z M 376.378906 567.207031 C 361.773438 551.925781 347.199219 535.027344 332.96875 516.851562 C 361.539062 517.9375 390.167969 517.941406 418.738281 516.703125 C 404.6875 535.210938 390.5 552.136719 376.378906 567.207031 Z M 523.492188 409.261719 C 533.136719 430.570312 541.265625 451.179688 547.722656 470.78125 C 526.800781 475.410156 504.214844 479.136719 480.417969 481.902344 C 495.792969 458.273438 510.21875 434.058594 523.492188 409.261719 Z M 441.253906 485.523438 C 397.550781 488.550781 353.574219 488.515625 309.855469 485.769531 C 285.015625 450.597656 262.902344 413.609375 243.8125 375.210938 C 262.8125 336.886719 284.761719 299.96875 309.488281 264.855469 C 353.234375 261.648438 397.253906 261.640625 441.003906 264.875 C 465.515625 299.988281 487.433594 336.808594 506.871094 374.785156 C 487.667969 413.085938 465.597656 450.078125 441.253906 485.523438 Z M 539.449219 97.777344 C 584.429688 122.925781 564.410156 212.234375 554.582031 251.074219 C 524.648438 244.375 492.144531 239.394531 458.113281 236.296875 C 438.285156 208.9375 417.746094 184.054688 397.125 162.523438 C 427.359375 134.269531 494.90625 72.875 539.449219 97.777344 Z M 539.449219 97.777344 "/></g></g></svg>