<svg xmlns="http://www.w3.org/2000/svg" xmlns:xlink="http://www.w3.org/1999/xlink" width="1000" zoomAndPan="magnify" viewBox="0 0 750 749.999995" height="1000" preserveAspectRatio="xMidYMid meet" version="1.2"><defs><clipPath id="44c27b9f21"><path d="M 4 219 L 225 219 L 225 484.671875 L 4 484.671875 Z M 4 219 "/></clipPath><clipPath id="66ea92a6aa"><path d="M 465 222 L 723 222 L 723 484.671875 L 465 484.671875 Z M 465 222 "/></clipPath></defs><g id="b6ac6807e6"><path style=" stroke:none;fill-rule:nonzero;fill:#0071bc;fill-opacity:1;" d="M 739.972656 205.265625 C 633.308594 200.421875 625.5625 235.144531 604.421875 290.863281 L 563.113281 295.710938 L 553.429688 334.148438 C 553.429688 334.148438 575.214844 318.804688 581.347656 323.488281 C 584.574219 326.074219 578.441406 337.863281 578.441406 337.863281 L 591.03125 352.238281 L 590.867188 352.398438 L 592.804688 354.335938 L 592.964844 354.175781 L 607.328125 366.773438 C 607.328125 366.773438 619.269531 360.636719 621.691406 363.867188 C 626.371094 369.839844 611.039062 391.804688 611.039062 391.804688 L 649.445312 382.117188 L 654.285156 340.769531 C 710.121094 319.773438 744.8125 312.023438 739.972656 205.265625 Z M 705.277344 267.445312 C 699.792969 298.941406 659.128906 298.941406 653.640625 267.445312 C 653.480469 266.476562 653.480469 265.347656 653.640625 264.378906 C 659.128906 232.882812 699.792969 232.882812 705.277344 264.378906 C 705.441406 265.347656 705.441406 266.316406 705.277344 267.445312 Z M 705.277344 267.445312 "/><path style=" stroke:none;fill-rule:nonzero;fill:#f15a24;fill-opacity:1;" d="M 568.277344 355.304688 C 574.246094 349.332031 584.089844 349.332031 590.0625 355.304688 C 596.03125 361.28125 596.03125 371.132812 590.0625 377.109375 C 584.089844 383.085938 557.464844 387.929688 557.464844 387.929688 C 557.464844 387.929688 562.304688 361.28125 568.277344 355.304688 Z M 568.277344 355.304688 "/><g clip-rule="nonzero" clip-path="url(#44c27b9f21)"><path style=" stroke:none;fill-rule:nonzero;fill:#009245;fill-opacity:1;" d="M 224.238281 401.65625 C 224.238281 452.855469 183.414062 484.671875 117.574219 484.671875 C 60.933594 484.671875 24.949219 464.160156 7.84375 421.847656 L 4.941406 414.902344 L 56.417969 388.253906 L 59.804688 396.652344 C 67.875 416.839844 89.820312 428.789062 118.222656 428.789062 C 129.03125 428.789062 164.050781 426.851562 164.050781 401.65625 C 164.050781 396.328125 164.050781 380.339844 117.089844 375.171875 C 67.875 369.355469 17.6875 355.304688 17.6875 296.035156 C 17.6875 243.707031 67.390625 219.800781 116.609375 219.480469 C 165.339844 219.480469 199.710938 237.246094 216.171875 270.675781 L 219.722656 277.785156 L 170.664062 302.976562 L 166.792969 296.355469 C 160.015625 285.695312 140.8125 274.230469 117.898438 274.230469 C 92.5625 274.230469 77.394531 282.789062 77.394531 297.324219 C 77.394531 308.953125 89.980469 314.929688 122.417969 318.804688 C 155.496094 322.84375 224.238281 331.242188 224.238281 401.65625 Z M 224.238281 401.65625 "/></g><path style=" stroke:none;fill-rule:nonzero;fill:#fbb03b;fill-opacity:1;" d="M 253.609375 227.394531 L 445.476562 227.394531 L 445.476562 286.667969 L 313.800781 286.667969 L 313.800781 324.296875 L 440.796875 324.296875 L 440.796875 381.792969 L 313.800781 381.792969 L 313.800781 418.453125 L 445.476562 418.453125 L 445.476562 478.375 L 253.609375 478.375 Z M 253.609375 227.394531 "/><g clip-rule="nonzero" clip-path="url(#66ea92a6aa)"><path style=" stroke:none;fill-rule:nonzero;fill:#ed1c24;fill-opacity:1;" d="M 718.511719 318.644531 C 721.253906 330.109375 722.707031 342.222656 722.707031 354.5 C 722.0625 418.9375 682.042969 484.027344 594.257812 484.027344 C 553.753906 484.027344 520.027344 470.136719 496.953125 443.8125 C 476.621094 420.714844 465.484375 389.0625 465.484375 354.660156 C 465.484375 320.257812 476.78125 288.121094 497.4375 264.378906 C 520.835938 237.246094 554.398438 222.871094 594.417969 222.871094 C 606.039062 222.871094 617.171875 224.164062 627.5 226.585938 C 614.914062 240.636719 607.972656 258.886719 600.226562 279.722656 C 598.292969 279.558594 596.355469 279.558594 594.417969 279.558594 C 574.246094 279.558594 557.949219 285.859375 545.847656 298.292969 C 532.292969 312.183594 524.867188 333.019531 525.515625 355.304688 C 526 372.101562 532.292969 427.175781 594.417969 427.175781 C 644.121094 427.175781 662.355469 389.867188 663 354.984375 C 663 352.238281 663 349.332031 662.839844 346.585938 L 665.257812 345.617188 C 686.074219 337.703125 704.308594 330.757812 718.511719 318.644531 Z M 718.511719 318.644531 "/></g></g></svg>